<?xml version="1.0" encoding="UTF-8" standalone="no"?>
<svg
   xmlns:dc="http://purl.org/dc/elements/1.1/"
   xmlns:cc="http://creativecommons.org/ns#"
   xmlns:rdf="http://www.w3.org/1999/02/22-rdf-syntax-ns#"
   xmlns:svg="http://www.w3.org/2000/svg"
   xmlns="http://www.w3.org/2000/svg"
   viewBox="0 0 2501.575 1084.2476"
   height="1084.2476"
   width="2501.575"
   xml:space="preserve"
   version="1.1"
   id="svg2"><metadata
     id="metadata8"><rdf:RDF><cc:Work
         rdf:about=""><dc:format>image/svg+xml</dc:format><dc:type
           rdf:resource="http://purl.org/dc/dcmitype/StillImage" /><dc:title></dc:title></cc:Work></rdf:RDF></metadata><defs
     id="defs6"><clipPath
       id="clipPath16"
       clipPathUnits="userSpaceOnUse"><path
         id="path18"
         d="M 414.368,635.012 C 493.962,598.117 549.173,517.52 549.173,424.02 l 0,0 c 0,-21.05 -2.807,-41.441 -8.052,-60.83 l 0,0 27.981,-60.003 c 17.445,36.481 27.221,77.331 27.221,120.467 l 0,0 c 0,130.268 -89.088,239.727 -209.662,270.777 l 0,0 27.707,-59.419 z" /></clipPath><linearGradient
       id="linearGradient24"
       spreadMethod="pad"
       gradientTransform="matrix(209.66225,0,0,-209.66225,386.66064,498.80878)"
       gradientUnits="userSpaceOnUse"
       y2="0"
       x2="1"
       y1="0"
       x1="0"><stop
         id="stop26"
         offset="0"
         style="stop-opacity:1;stop-color:#f4f4f4" /><stop
         id="stop28"
         offset="1"
         style="stop-opacity:1;stop-color:#d3d3d3" /></linearGradient><clipPath
       id="clipPath36"
       clipPathUnits="userSpaceOnUse"><path
         id="path38"
         d="m 37.132,423.654 c 0,-154.416 125.179,-279.595 279.595,-279.595 l 0,0 c 50.568,0 97.998,13.427 138.926,36.906 l 0,0 -20.153,43.217 C 400.739,203.477 360.126,191.575 316.728,191.575 l 0,0 c -128.376,0 -232.445,104.069 -232.445,232.445 l 0,0 c 0,101.478 65.036,187.754 155.697,219.457 l 0,0 -19.875,42.621 C 113.305,646.765 37.132,544.108 37.132,423.654" /></clipPath><linearGradient
       id="linearGradient44"
       spreadMethod="pad"
       gradientTransform="matrix(0,-418.5206,-418.5206,0,246.3925,469.03766)"
       gradientUnits="userSpaceOnUse"
       y2="0"
       x2="1"
       y1="0"
       x1="0"><stop
         id="stop46"
         offset="0"
         style="stop-opacity:1;stop-color:#f4f4f4" /><stop
         id="stop48"
         offset="1"
         style="stop-opacity:1;stop-color:#d3d3d3" /></linearGradient><clipPath
       id="clipPath56"
       clipPathUnits="userSpaceOnUse"><path
         id="path58"
         d="m 316.727,261.219 c -81.702,0 -149.306,60.324 -160.726,138.86 l 0,0 137.151,0 0,47.15 -137.151,0 c 9.026,62.069 53.148,112.754 111.585,131.284 l 0,0 c 8.256,2.617 16.799,4.589 25.566,5.866 l 0,0 0,47.537 c -15.805,-1.774 -31.081,-5.3 -45.625,-10.386 l 0,0 C 165.783,592.944 107.141,515.154 107.141,423.654 l 0,0 c 0,-115.751 93.835,-209.585 209.586,-209.585 l 0,0 c 39.13,0 75.75,10.731 107.093,29.401 l 0,0 c 6.356,3.785 12.499,7.889 18.398,12.305 l 0,0 -20.491,43.944 c -5.669,-4.805 -11.677,-9.218 -17.973,-13.22 l 0,0 c -12.274,-7.803 -25.66,-14.015 -39.876,-18.321 l 0,0 0,103.837 0,107.544 75.651,-162.234 21.356,-45.798 c 27.527,26.094 47.972,59.581 58.168,97.279 l 0,0 c 4.73,17.483 7.261,35.869 7.261,54.848 l 0,0 c 0,84.305 -49.781,156.976 -121.548,190.243 l 0,0 c -9.885,4.582 -20.182,8.423 -30.828,11.437 l 0,0 30.197,-64.757 c 18.284,-11.695 34.071,-26.953 46.381,-44.792 l 0,0 c 10.169,-14.734 17.951,-31.238 22.825,-48.947 l 0,0 c 3.784,-13.752 5.823,-28.228 5.823,-43.184 l 0,0 c 0,-20.201 -3.699,-39.535 -10.438,-57.377 l 0,0 -98.249,210.696 -25.34,54.343 c -9.292,1.259 -18.773,1.924 -28.41,1.924 l 0,0 0,-372.021 z" /></clipPath><linearGradient
       id="linearGradient64"
       spreadMethod="pad"
       gradientTransform="matrix(0,424.84622,424.84622,0,316.72757,25.407976)"
       gradientUnits="userSpaceOnUse"
       y2="0"
       x2="1"
       y1="0"
       x1="0"><stop
         id="stop66"
         offset="0"
         style="stop-opacity:1;stop-color:#991636" /><stop
         id="stop68"
         offset="1"
         style="stop-opacity:1;stop-color:#a72055" /></linearGradient><clipPath
       id="clipPath76"
       clipPathUnits="userSpaceOnUse"><path
         id="path78"
         d="m 0,867.398 2001.258,0 L 2001.258,0 0,0 0,867.398 Z" /></clipPath><clipPath
       id="clipPath132"
       clipPathUnits="userSpaceOnUse"><path
         id="path134"
         d="m 646.796,348.621 0,-45.435 7.67,0 0,18.721 20.151,0 0,7.084 -20.151,0 0,12.48 22.555,0 0.065,7.15 -30.29,0 z" /></clipPath><linearGradient
       id="linearGradient140"
       spreadMethod="pad"
       gradientTransform="matrix(0,-246.48358,-246.48358,0,661.94128,542.79504)"
       gradientUnits="userSpaceOnUse"
       y2="0"
       x2="1"
       y1="0"
       x1="0"><stop
         id="stop142"
         offset="0"
         style="stop-opacity:1;stop-color:#f4f4f4" /><stop
         id="stop144"
         offset="1"
         style="stop-opacity:1;stop-color:#d3d3d3" /></linearGradient><clipPath
       id="clipPath152"
       clipPathUnits="userSpaceOnUse"><path
         id="path154"
         d="m 683.131,348.621 0,-45.435 32.695,0 0,7.215 -25.026,0 0,12.155 21.776,0 0,6.825 -21.776,0 0,12.025 24.245,0 0,7.215 -31.914,0 z" /></clipPath><linearGradient
       id="linearGradient160"
       spreadMethod="pad"
       gradientTransform="matrix(0,-246.48358,-246.48358,0,699.47803,542.79504)"
       gradientUnits="userSpaceOnUse"
       y2="0"
       x2="1"
       y1="0"
       x1="0"><stop
         id="stop162"
         offset="0"
         style="stop-opacity:1;stop-color:#f4f4f4" /><stop
         id="stop164"
         offset="1"
         style="stop-opacity:1;stop-color:#d3d3d3" /></linearGradient><clipPath
       id="clipPath172"
       clipPathUnits="userSpaceOnUse"><path
         id="path174"
         d="m 725.413,346.314 c -3.056,-2.276 -4.583,-5.516 -4.583,-9.718 l 0,0 c 0,-4.204 1.343,-7.324 4.03,-9.36 l 0,0 c 1.343,-1.083 2.881,-1.961 4.615,-2.632 l 0,0 c 1.733,-0.672 4.268,-1.41 7.605,-2.211 l 0,0 c 3.337,-0.801 5.687,-1.69 7.053,-2.664 l 0,0 c 1.364,-0.976 2.047,-2.34 2.047,-4.095 l 0,0 c 0,-1.755 -0.726,-3.164 -2.178,-4.225 l 0,0 c -1.452,-1.063 -3.412,-1.593 -5.882,-1.593 l 0,0 c -4.94,0 -9.708,1.993 -14.3,5.98 l 0,0 -4.81,-5.785 c 5.503,-4.898 11.808,-7.345 18.915,-7.345 l 0,0 c 4.853,0 8.775,1.235 11.765,3.705 l 0,0 c 2.99,2.469 4.485,5.688 4.485,9.652 l 0,0 c 0,3.966 -1.181,6.965 -3.543,9.003 l 0,0 c -2.362,2.037 -5.872,3.618 -10.53,4.745 l 0,0 c -4.658,1.127 -7.702,2.178 -9.132,3.152 l 0,0 c -1.43,0.975 -2.145,2.383 -2.145,4.225 l 0,0 c 0,1.842 0.715,3.218 2.145,4.127 l 0,0 c 1.43,0.911 3.26,1.366 5.493,1.366 l 0,0 c 2.231,0 4.494,-0.39 6.792,-1.17 l 0,0 c 2.296,-0.781 4.117,-1.777 5.459,-2.99 l 0,0 4.096,5.785 c -2.08,1.733 -4.55,3.076 -7.41,4.03 l 0,0 c -2.86,0.953 -5.742,1.431 -8.645,1.431 l 0,0 c -4.507,0 -8.288,-1.139 -11.342,-3.413" /></clipPath><linearGradient
       id="linearGradient180"
       spreadMethod="pad"
       gradientTransform="matrix(0,-246.48358,-246.48358,0,736.59253,542.79504)"
       gradientUnits="userSpaceOnUse"
       y2="0"
       x2="1"
       y1="0"
       x1="0"><stop
         id="stop182"
         offset="0"
         style="stop-opacity:1;stop-color:#f4f4f4" /><stop
         id="stop184"
         offset="1"
         style="stop-opacity:1;stop-color:#d3d3d3" /></linearGradient><clipPath
       id="clipPath192"
       clipPathUnits="userSpaceOnUse"><path
         id="path194"
         d="m 756.449,348.621 0,-7.02 13.78,0 0,-38.415 7.671,0 0,38.415 13.78,0 0,7.02 -35.231,0 z" /></clipPath><linearGradient
       id="linearGradient200"
       spreadMethod="pad"
       gradientTransform="matrix(0,-246.48358,-246.48358,0,774.06445,542.79504)"
       gradientUnits="userSpaceOnUse"
       y2="0"
       x2="1"
       y1="0"
       x1="0"><stop
         id="stop202"
         offset="0"
         style="stop-opacity:1;stop-color:#f4f4f4" /><stop
         id="stop204"
         offset="1"
         style="stop-opacity:1;stop-color:#d3d3d3" /></linearGradient><clipPath
       id="clipPath212"
       clipPathUnits="userSpaceOnUse"><path
         id="path214"
         d="m 797.073,303.186 7.671,0 0,45.436 -7.671,0 0,-45.436 z" /></clipPath><linearGradient
       id="linearGradient220"
       spreadMethod="pad"
       gradientTransform="matrix(0,-246.48358,-246.48358,0,800.90869,542.79504)"
       gradientUnits="userSpaceOnUse"
       y2="0"
       x2="1"
       y1="0"
       x1="0"><stop
         id="stop222"
         offset="0"
         style="stop-opacity:1;stop-color:#f4f4f4" /><stop
         id="stop224"
         offset="1"
         style="stop-opacity:1;stop-color:#d3d3d3" /></linearGradient><clipPath
       id="clipPath232"
       clipPathUnits="userSpaceOnUse"><path
         id="path234"
         d="m 844.849,348.621 -13.975,-33.93 -13.976,33.93 -8.579,0 18.264,-45.435 8.58,0 18.266,45.435 -8.58,0 z" /></clipPath><linearGradient
       id="linearGradient240"
       spreadMethod="pad"
       gradientTransform="matrix(0,-246.48358,-246.48358,0,830.87354,542.79504)"
       gradientUnits="userSpaceOnUse"
       y2="0"
       x2="1"
       y1="0"
       x1="0"><stop
         id="stop242"
         offset="0"
         style="stop-opacity:1;stop-color:#f4f4f4" /><stop
         id="stop244"
         offset="1"
         style="stop-opacity:1;stop-color:#d3d3d3" /></linearGradient><clipPath
       id="clipPath252"
       clipPathUnits="userSpaceOnUse"><path
         id="path254"
         d="m 868.118,348.621 -20.019,-45.435 8.19,0 4.549,10.335 22.751,0 4.55,-10.335 8.19,0 -20.021,45.435 -8.19,0 z m 4.095,-9.295 8.255,-18.72 -16.509,0 8.254,18.72 z" /></clipPath><linearGradient
       id="linearGradient260"
       spreadMethod="pad"
       gradientTransform="matrix(0,-246.48358,-246.48358,0,872.2135,542.79504)"
       gradientUnits="userSpaceOnUse"
       y2="0"
       x2="1"
       y1="0"
       x1="0"><stop
         id="stop262"
         offset="0"
         style="stop-opacity:1;stop-color:#f4f4f4" /><stop
         id="stop264"
         offset="1"
         style="stop-opacity:1;stop-color:#d3d3d3" /></linearGradient><clipPath
       id="clipPath272"
       clipPathUnits="userSpaceOnUse"><path
         id="path274"
         d="m 899.708,348.621 0,-45.435 28.404,0 0,7.28 -20.734,0 0,38.155 -7.67,0 z" /></clipPath><linearGradient
       id="linearGradient280"
       spreadMethod="pad"
       gradientTransform="matrix(0,-246.48358,-246.48358,0,913.91028,542.79504)"
       gradientUnits="userSpaceOnUse"
       y2="0"
       x2="1"
       y1="0"
       x1="0"><stop
         id="stop282"
         offset="0"
         style="stop-opacity:1;stop-color:#f4f4f4" /><stop
         id="stop284"
         offset="1"
         style="stop-opacity:1;stop-color:#d3d3d3" /></linearGradient></defs><g
     transform="matrix(1.25,0,0,-1.25,0,1084.2475)"
     id="g10"><g
       id="g12"><g
         clip-path="url(#clipPath16)"
         id="g14"><g
           id="g20"><g
             id="g22"><path
               id="path30"
               style="fill:url(#linearGradient24);stroke:none"
               d="M 414.368,635.012 C 493.962,598.117 549.173,517.52 549.173,424.02 l 0,0 c 0,-21.05 -2.807,-41.441 -8.052,-60.83 l 0,0 27.981,-60.003 c 17.445,36.481 27.221,77.331 27.221,120.467 l 0,0 c 0,130.268 -89.088,239.727 -209.662,270.777 l 0,0 27.707,-59.419 z" /></g></g></g></g><g
       id="g32"><g
         clip-path="url(#clipPath36)"
         id="g34"><g
           id="g40"><g
             id="g42"><path
               id="path50"
               style="fill:url(#linearGradient44);stroke:none"
               d="m 37.132,423.654 c 0,-154.416 125.179,-279.595 279.595,-279.595 l 0,0 c 50.568,0 97.998,13.427 138.926,36.906 l 0,0 -20.153,43.217 C 400.739,203.477 360.126,191.575 316.728,191.575 l 0,0 c -128.376,0 -232.445,104.069 -232.445,232.445 l 0,0 c 0,101.478 65.036,187.754 155.697,219.457 l 0,0 -19.875,42.621 C 113.305,646.765 37.132,544.108 37.132,423.654" /></g></g></g></g><g
       id="g52"><g
         clip-path="url(#clipPath56)"
         id="g54"><g
           id="g60"><g
             id="g62"><path
               id="path70"
               style="fill:url(#linearGradient64);stroke:none"
               d="m 316.727,261.219 c -81.702,0 -149.306,60.324 -160.726,138.86 l 0,0 137.151,0 0,47.15 -137.151,0 c 9.026,62.069 53.148,112.754 111.585,131.284 l 0,0 c 8.256,2.617 16.799,4.589 25.566,5.866 l 0,0 0,47.537 c -15.805,-1.774 -31.081,-5.3 -45.625,-10.386 l 0,0 C 165.783,592.944 107.141,515.154 107.141,423.654 l 0,0 c 0,-115.751 93.835,-209.585 209.586,-209.585 l 0,0 c 39.13,0 75.75,10.731 107.093,29.401 l 0,0 c 6.356,3.785 12.499,7.889 18.398,12.305 l 0,0 -20.491,43.944 c -5.669,-4.805 -11.677,-9.218 -17.973,-13.22 l 0,0 c -12.274,-7.803 -25.66,-14.015 -39.876,-18.321 l 0,0 0,103.837 0,107.544 75.651,-162.234 21.356,-45.798 c 27.527,26.094 47.972,59.581 58.168,97.279 l 0,0 c 4.73,17.483 7.261,35.869 7.261,54.848 l 0,0 c 0,84.305 -49.781,156.976 -121.548,190.243 l 0,0 c -9.885,4.582 -20.182,8.423 -30.828,11.437 l 0,0 30.197,-64.757 c 18.284,-11.695 34.071,-26.953 46.381,-44.792 l 0,0 c 10.169,-14.734 17.951,-31.238 22.825,-48.947 l 0,0 c 3.784,-13.752 5.823,-28.228 5.823,-43.184 l 0,0 c 0,-20.201 -3.699,-39.535 -10.438,-57.377 l 0,0 -98.249,210.696 -25.34,54.343 c -9.292,1.259 -18.773,1.924 -28.41,1.924 l 0,0 0,-372.021 z" /></g></g></g></g><g
       id="g72"><g
         clip-path="url(#clipPath76)"
         id="g74"><g
           transform="translate(756.3969,368.8541)"
           id="g80"><path
             id="path82"
             style="fill:#a61f55;fill-opacity:1;fill-rule:nonzero;stroke:none"
             d="m 0,0 0,145.8 24.4,0 0,-122.6 70.8,0 L 95.2,0 0,0 Z" /></g><g
           transform="translate(1158.6755,514.6539)"
           id="g84"><path
             id="path86"
             style="fill:#a61f55;fill-opacity:1;fill-rule:nonzero;stroke:none"
             d="m 0,0 -0.002,-23 -36,0 0.002,-122.8 -24.601,0 -10e-4,122.8 -35.199,0 L -95.8,0 0,0 Z" /></g><g
           transform="translate(1293.6716,441.4542)"
           id="g88"><path
             id="path90"
             style="fill:#a61f55;fill-opacity:1;fill-rule:nonzero;stroke:none"
             d="m 0,0 c 0,-7.069 1.3,-13.7 3.9,-19.9 2.6,-6.2 6.201,-11.6 10.8,-16.2 4.6,-4.601 9.932,-8.234 16,-10.9 6.066,-2.669 12.631,-4 19.7,-4 6.8,0 13.232,1.331 19.3,4 6.066,2.666 11.331,6.299 15.8,10.9 4.466,4.6 8,10 10.601,16.2 C 98.7,-13.7 100,-7.069 100,0 c 0,7.065 -1.334,13.7 -4,19.9 -2.669,6.2 -6.269,11.631 -10.8,16.3 -4.534,4.666 -9.834,8.331 -15.9,11 -6.069,2.666 -12.569,4 -19.5,4 -6.934,0 -13.434,-1.334 -19.5,-4 C 24.231,44.531 18.966,40.866 14.5,36.2 10.031,31.531 6.5,26.1 3.9,19.9 1.3,13.7 0,7.065 0,0 m -24.6,0 c 0,10.131 1.966,19.731 5.9,28.8 3.931,9.066 9.265,17 16,23.8 6.731,6.8 14.6,12.2 23.6,16.2 9,4 18.631,6 28.9,6 10.132,0 19.731,-2 28.801,-6 9.065,-4 17,-9.4 23.799,-16.2 6.8,-6.8 12.165,-14.734 16.1,-23.8 3.932,-9.069 5.9,-18.669 5.9,-28.8 0,-10.269 -1.968,-19.9 -5.9,-28.9 -3.935,-9 -9.3,-16.869 -16.1,-23.6 -6.799,-6.735 -14.734,-12.035 -23.799,-15.9 -9.07,-3.869 -18.669,-5.801 -28.801,-5.801 -10.269,0 -19.9,1.932 -28.9,5.801 -9,3.865 -16.869,9.165 -23.6,15.9 -6.735,6.731 -12.069,14.6 -16,23.6 -3.934,9 -5.9,18.631 -5.9,28.9" /></g><g
           transform="translate(1556.8718,514.6539)"
           id="g92"><path
             id="path94"
             style="fill:#a61f55;fill-opacity:1;fill-rule:nonzero;stroke:none"
             d="m 0,0 0,-172.6 -104.397,131.597 -0.002,-104.797 -24.401,0 0,172.4 L -24.399,-102.436 -24.399,0 0,0 Z" /></g><g
           transform="translate(1645.4724,416.0543)"
           id="g96"><path
             id="path98"
             style="fill:#a61f55;fill-opacity:1;fill-rule:nonzero;stroke:none"
             d="m 0,0 0,-47.2 -24.601,0 0,47.2 -54,98.6 27.801,0 c 0,0 37.078,-71.095 38.812,-74.426 L 26,98.6 53.8,98.6 0,0 Z" /></g><g
           transform="translate(1704.2664,441.4542)"
           id="g100"><path
             id="path102"
             style="fill:#a61f55;fill-opacity:1;fill-rule:nonzero;stroke:none"
             d="m 0,0 c 0,-7.069 1.3,-13.7 3.9,-19.9 2.6,-6.2 6.201,-11.6 10.8,-16.2 4.6,-4.601 9.932,-8.234 16,-10.9 6.066,-2.669 12.631,-4 19.7,-4 6.8,0 13.232,1.331 19.3,4 6.066,2.666 11.331,6.299 15.8,10.9 4.466,4.6 8,10 10.601,16.2 C 98.7,-13.7 100,-7.069 100,0 c 0,7.065 -1.334,13.7 -4,19.9 -2.669,6.2 -6.269,11.631 -10.8,16.3 -4.534,4.666 -9.834,8.331 -15.9,11 -6.069,2.666 -12.569,4 -19.5,4 -6.934,0 -13.434,-1.334 -19.5,-4 C 24.231,44.531 18.966,40.866 14.5,36.2 10.031,31.531 6.5,26.1 3.9,19.9 1.3,13.7 0,7.065 0,0 m -24.6,0 c 0,10.131 1.966,19.731 5.9,28.8 3.931,9.066 9.265,17 16,23.8 6.731,6.8 14.6,12.2 23.6,16.2 9,4 18.631,6 28.9,6 10.132,0 19.731,-2 28.801,-6 9.065,-4 17,-9.4 23.799,-16.2 6.8,-6.8 12.165,-14.734 16.1,-23.8 3.932,-9.069 5.9,-18.669 5.9,-28.8 0,-10.269 -1.968,-19.9 -5.9,-28.9 -3.935,-9 -9.3,-16.869 -16.1,-23.6 -6.799,-6.735 -14.734,-12.035 -23.799,-15.9 -9.07,-3.869 -18.669,-5.801 -28.801,-5.801 -10.269,0 -19.9,1.932 -28.9,5.801 -9,3.865 -16.869,9.165 -23.6,15.9 -6.735,6.731 -12.069,14.6 -16,23.6 -3.934,9 -5.9,18.631 -5.9,28.9" /></g><g
           transform="translate(1241.2761,425.6539)"
           id="g104"><path
             id="path106"
             style="fill:#a61f55;fill-opacity:1;fill-rule:nonzero;stroke:none"
             d="m 0,0 c 3.865,2.266 7.199,4.966 10,8.1 2.8,3.131 5.065,6.566 6.8,10.3 1.731,3.731 3,7.6 3.8,11.6 0.799,4 1.2,8 1.2,12 0,7.332 -1.269,13.932 -3.8,19.8 -2.535,5.866 -6.101,10.8 -10.7,14.8 -4.601,4 -10.2,7.066 -16.8,9.2 -6.601,2.132 -13.9,3.2 -21.9,3.2 l -41.201,0 0,-23 44.201,0 c 5.2,0 9.465,-0.869 12.799,-2.6 3.331,-1.734 5.966,-3.869 7.901,-6.4 1.93,-2.534 3.265,-5.234 4,-8.1 0.731,-2.869 1.099,-5.434 1.099,-7.7 0,-2.4 -0.399,-5.034 -1.2,-7.9 -0.8,-2.868 -2.199,-5.534 -4.199,-8 -2,-2.468 -4.669,-4.569 -8,-6.3 -3.335,-1.734 -7.535,-2.6 -12.601,-2.6 l -11.893,-0.234 c 0,0 41.094,-63.635 47.094,-72.966 l 29.4,0 C 32.399,-51.2 2.931,-4.668 0,0" /></g><g
           transform="translate(999.022,476.883)"
           id="g108"><path
             id="path110"
             style="fill:#a61f55;fill-opacity:1;fill-rule:nonzero;stroke:none"
             d="m 0,0 c 4.37,4.566 9.522,8.153 15.46,10.764 5.936,2.608 12.297,3.914 19.082,3.914 l 0,0.093 19.311,0 0,23 -19.311,0 C 24.493,37.771 15.069,35.814 6.263,31.9 -2.544,27.986 -10.244,22.702 -16.831,16.048 -23.421,9.394 -28.64,1.63 -32.487,-7.241 c -3.849,-8.874 -5.773,-18.267 -5.773,-28.181 0,-10.049 1.924,-19.473 5.773,-28.279 3.847,-8.807 9.066,-16.507 15.656,-23.094 6.587,-6.59 14.287,-11.775 23.094,-15.558 8.806,-3.786 18.23,-5.676 28.279,-5.676 l 19.311,0 0,23 -19.311,0 c -6.693,0.072 -12.924,1.363 -18.69,3.9 -5.938,2.609 -11.155,6.165 -15.656,10.666 -4.501,4.501 -8.024,9.786 -10.568,15.853 -2.545,6.066 -3.817,12.271 -3.817,19.188 0,6.914 1.272,13.405 3.817,19.472 C -7.828,-9.883 -4.373,-4.568 0,0" /></g><g
           transform="translate(1967.4666,514.5535)"
           id="g112"><path
             id="path114"
             style="fill:#a61f55;fill-opacity:1;fill-rule:nonzero;stroke:none"
             d="m 0,0 0,-152.6 -104.397,101.597 -0.002,-94.797 -24.401,0 0,152.4 104.401,-99.036 0,92.436 L 0,0 Z" /></g><g
           transform="translate(671.1967,391.6539)"
           id="g116"><path
             id="path118"
             style="fill:#a61f55;fill-opacity:1;fill-rule:nonzero;stroke:none"
             d="m 0,0 0,100.8 72.399,0 0,22.2 -96.799,0 0,-145.8 99.6,0 L 75.2,0 0,0 Z" /></g><path
           id="path120"
           style="fill:#a61f55;fill-opacity:1;fill-rule:nonzero;stroke:none"
           d="m 735.596,453.254 -54.456,0 0,-22.8 54.456,0 0,22.8 z" /><g
           transform="translate(885.9974,391.754)"
           id="g122"><path
             id="path124"
             style="fill:#a61f55;fill-opacity:1;fill-rule:nonzero;stroke:none"
             d="m 0,0 0,100.8 72.399,0 0,22.2 -96.799,0 0,-145.8 99.6,0 L 75.2,0 0,0 Z" /></g><path
           id="path126"
           style="fill:#a61f55;fill-opacity:1;fill-rule:nonzero;stroke:none"
           d="m 950.397,453.354 -54.456,0 0,-22.8 54.456,0 0,22.8 z" /></g></g><g
       id="g128"><g
         clip-path="url(#clipPath132)"
         id="g130"><g
           id="g136"><g
             id="g138"><path
               id="path146"
               style="fill:url(#linearGradient140);stroke:none"
               d="m 646.796,348.621 0,-45.435 7.67,0 0,18.721 20.151,0 0,7.084 -20.151,0 0,12.48 22.555,0 0.065,7.15 -30.29,0 z" /></g></g></g></g><g
       id="g148"><g
         clip-path="url(#clipPath152)"
         id="g150"><g
           id="g156"><g
             id="g158"><path
               id="path166"
               style="fill:url(#linearGradient160);stroke:none"
               d="m 683.131,348.621 0,-45.435 32.695,0 0,7.215 -25.026,0 0,12.155 21.776,0 0,6.825 -21.776,0 0,12.025 24.245,0 0,7.215 -31.914,0 z" /></g></g></g></g><g
       id="g168"><g
         clip-path="url(#clipPath172)"
         id="g170"><g
           id="g176"><g
             id="g178"><path
               id="path186"
               style="fill:url(#linearGradient180);stroke:none"
               d="m 725.413,346.314 c -3.056,-2.276 -4.583,-5.516 -4.583,-9.718 l 0,0 c 0,-4.204 1.343,-7.324 4.03,-9.36 l 0,0 c 1.343,-1.083 2.881,-1.961 4.615,-2.632 l 0,0 c 1.733,-0.672 4.268,-1.41 7.605,-2.211 l 0,0 c 3.337,-0.801 5.687,-1.69 7.053,-2.664 l 0,0 c 1.364,-0.976 2.047,-2.34 2.047,-4.095 l 0,0 c 0,-1.755 -0.726,-3.164 -2.178,-4.225 l 0,0 c -1.452,-1.063 -3.412,-1.593 -5.882,-1.593 l 0,0 c -4.94,0 -9.708,1.993 -14.3,5.98 l 0,0 -4.81,-5.785 c 5.503,-4.898 11.808,-7.345 18.915,-7.345 l 0,0 c 4.853,0 8.775,1.235 11.765,3.705 l 0,0 c 2.99,2.469 4.485,5.688 4.485,9.652 l 0,0 c 0,3.966 -1.181,6.965 -3.543,9.003 l 0,0 c -2.362,2.037 -5.872,3.618 -10.53,4.745 l 0,0 c -4.658,1.127 -7.702,2.178 -9.132,3.152 l 0,0 c -1.43,0.975 -2.145,2.383 -2.145,4.225 l 0,0 c 0,1.842 0.715,3.218 2.145,4.127 l 0,0 c 1.43,0.911 3.26,1.366 5.493,1.366 l 0,0 c 2.231,0 4.494,-0.39 6.792,-1.17 l 0,0 c 2.296,-0.781 4.117,-1.777 5.459,-2.99 l 0,0 4.096,5.785 c -2.08,1.733 -4.55,3.076 -7.41,4.03 l 0,0 c -2.86,0.953 -5.742,1.431 -8.645,1.431 l 0,0 c -4.507,0 -8.288,-1.139 -11.342,-3.413" /></g></g></g></g><g
       id="g188"><g
         clip-path="url(#clipPath192)"
         id="g190"><g
           id="g196"><g
             id="g198"><path
               id="path206"
               style="fill:url(#linearGradient200);stroke:none"
               d="m 756.449,348.621 0,-7.02 13.78,0 0,-38.415 7.671,0 0,38.415 13.78,0 0,7.02 -35.231,0 z" /></g></g></g></g><g
       id="g208"><g
         clip-path="url(#clipPath212)"
         id="g210"><g
           id="g216"><g
             id="g218"><path
               id="path226"
               style="fill:url(#linearGradient220);stroke:none"
               d="m 797.073,303.186 7.671,0 0,45.436 -7.671,0 0,-45.436 z" /></g></g></g></g><g
       id="g228"><g
         clip-path="url(#clipPath232)"
         id="g230"><g
           id="g236"><g
             id="g238"><path
               id="path246"
               style="fill:url(#linearGradient240);stroke:none"
               d="m 844.849,348.621 -13.975,-33.93 -13.976,33.93 -8.579,0 18.264,-45.435 8.58,0 18.266,45.435 -8.58,0 z" /></g></g></g></g><g
       id="g248"><g
         clip-path="url(#clipPath252)"
         id="g250"><g
           id="g256"><g
             id="g258"><path
               id="path266"
               style="fill:url(#linearGradient260);stroke:none"
               d="m 868.118,348.621 -20.019,-45.435 8.19,0 4.549,10.335 22.751,0 4.55,-10.335 8.19,0 -20.021,45.435 -8.19,0 z m 4.095,-9.295 8.255,-18.72 -16.509,0 8.254,18.72 z" /></g></g></g></g><g
       id="g268"><g
         clip-path="url(#clipPath272)"
         id="g270"><g
           id="g276"><g
             id="g278"><path
               id="path286"
               style="fill:url(#linearGradient280);stroke:none"
               d="m 899.708,348.621 0,-45.435 28.404,0 0,7.28 -20.734,0 0,38.155 -7.67,0 z" /></g></g></g></g></g></svg>